<?xml version="1.0" encoding="utf-8"?>
<!-- Generator: Adobe Illustrator 22.0.0, SVG Export Plug-In . SVG Version: 6.00 Build 0)  -->
<svg version="1.1" id="Layer_1" xmlns="http://www.w3.org/2000/svg" xmlns:xlink="http://www.w3.org/1999/xlink" x="0px" y="0px"
	 viewBox="0 0 129.6 222.8" style="enable-background:new 0 0 129.6 222.8;" xml:space="preserve">
<style type="text/css">
	.st0{clip-path:url(#SVGID_2_);}
	.st1{clip-path:url(#SVGID_4_);}
</style>
<title>Asset 36</title>
<g>
	<g>
		<g id="Layer_2_1_">
			<defs>
				<path id="SVGID_1_" d="M125.2,223.6l-71,0.7l-52-93.6l0,0c14,16.2,35.9,26.8,67.5,26.8c26,0,45.1-8.9,60.5-24.3V224L125.2,223.6
					z M130.2,58.6H64.8v27.7h42v29.1c-12.9,10.3-24.2,13.1-37.1,13.1c-29.4,0-45.7-14.4-52.6-32.6l-0.8-2.4l0,0l-0.7-2.4l-0.6-2.5
					l-0.5-2.5l-0.4-2.5l-0.3-2.5l0,0l-0.2-2.5l-0.1-2.5v-0.1v-2.5v-0.1l0.1-3.1l0,0l0,0l0,0l0.2-3.1l0,0l0.3-3l0,0l0,0l0,0l0.4-3
					l0.5-2.9l0,0l0,0l0,0l0.7-2.9l0,0l0,0l0.8-2.8l0.9-2.8l1-2.7l1.1-2.6l1.2-2.5l1.3-2.4l0,0l0,0l1.4-2.3l0,0l0,0l1.6-2.3l1.7-2.4
					l1.8-2.1l0,0l1.9-2l2-1.9l0,0l2.1-1.8l2.2-1.7l0,0l2.3-1.6l0,0l2.4-1.4l2.5-1.3l0,0l2.6-1.2l2.7-1.1l0,0l2.7-0.9l2.8-0.8l0,0
					l2.9-0.7l3-0.5l3.1-0.4l0,0l3.2-0.2l3.3-0.1h1.3l1.4,0.1l0,0l1.4,0.1l0,0l1.4,0.1l1.4,0.2l0,0l1.3,0.2H78l1.4,0.2l1.4,0.3
					l1.4,0.3l0,0l1.4,0.3l0,0l1.4,0.3l0,0l1.4,0.4l1.4,0.4l0,0l1.4,0.4l0,0l1.4,0.5l1.4,0.5l1.3,0.5l0,0l1.4,0.7l1.3,0.6l0,0
					l1.3,0.6l1.3,0.7l1.3,0.7l1.3,0.7l0,0l1.3,0.8l1.2,0.8l1.2,0.8l0,0l1.2,0.8l1.1,0.8l0,0l0,0l1.1,0.9l0,0l1.1,0.9l0,0l0,0l0,0
					l1.1,0.9l1.1,1l18.7-19.2L130.2,58.6z"/>
			</defs>
			<clipPath id="SVGID_2_">
				<use xlink:href="#SVGID_1_"  style="overflow:visible;"/>
			</clipPath>
			<g id="Layer_3" class="st0">
				<g>
					<defs>
						<rect id="SVGID_3_" x="-59.5" y="-77.5" width="246.7" height="369.3"/>
					</defs>
					<clipPath id="SVGID_4_">
						<use xlink:href="#SVGID_3_"  style="overflow:visible;"/>
					</clipPath>
					<g class="st1">
						
							<image style="overflow:visible;enable-background:new    ;" width="2560" height="1440" xlink:href="1BE29C6C.png"  transform="matrix(-1.989856e-17 0.1173 0.1315 2.616465e-17 -59.5 -77.5)">
						</image>
					</g>
				</g>
			</g>
		</g>
	</g>
</g>
</svg>
