<svg xmlns="http://www.w3.org/2000/svg" xmlns:xlink="http://www.w3.org/1999/xlink" viewBox="0 0 57 57"><defs><style>.cls-1{fill:none;stroke-miterlimit:2.61;stroke-width:2px;stroke:url(#GradientFill_1);}.cls-2{fill:url(#GradientFill_1-2);}</style><linearGradient id="GradientFill_1" y1="28.5" x2="57" y2="28.5" gradientUnits="userSpaceOnUse"><stop offset="0" stop-color="#9d258a"/><stop offset="0.07" stop-color="#85277c"/><stop offset="0.51" stop-color="#380548"/><stop offset="0.77" stop-color="#380548"/><stop offset="1" stop-color="#380548"/></linearGradient><linearGradient id="GradientFill_1-2" x1="17.5" x2="39.5" xlink:href="#GradientFill_1"/></defs><title>Asset 20</title><g id="Layer_2" data-name="Layer 2"><g id="Layer_3" data-name="Layer 3"><rect class="cls-1" x="1" y="1" width="55" height="55" rx="27.5" ry="27.5"/><path class="cls-2" d="M39.45,34.55c-.06-.19-.46-.47-1.19-.83-.19-.12-.47-.27-.84-.47l-1-.55c-.3-.16-.58-.33-.84-.48l-.39-.28a4.16,4.16,0,0,0-.55-.33,1.06,1.06,0,0,0-.45-.11,1.31,1.31,0,0,0-.78.44,8,8,0,0,0-.86,1,8.65,8.65,0,0,1-.83,1,1.19,1.19,0,0,1-.71.45,1.13,1.13,0,0,1-.36-.08l-.32-.13L30,33.9l-.3-.18A16.28,16.28,0,0,1,26,31a16.51,16.51,0,0,1-2.72-3.67L23.1,27l-.22-.37c0-.08-.08-.18-.13-.33a1.07,1.07,0,0,1-.08-.35,1.23,1.23,0,0,1,.45-.72,8.73,8.73,0,0,1,1-.82,7.18,7.18,0,0,0,1-.86,1.31,1.31,0,0,0,.45-.78,1.06,1.06,0,0,0-.11-.45,3.46,3.46,0,0,0-.34-.55l-.27-.39c-.15-.26-.32-.54-.48-.84l-.55-1c-.2-.37-.35-.65-.47-.85-.36-.72-.64-1.12-.83-1.18a.85.85,0,0,0-.32-.05,4.9,4.9,0,0,0-1.11.16A6.41,6.41,0,0,0,20,18a4.2,4.2,0,0,0-1.65,1.91,6.09,6.09,0,0,0-.8,2.91,7.37,7.37,0,0,0,.05.82,9,9,0,0,0,.2.9c.09.33.17.58.23.74s.16.45.32.86l.28.77a13.8,13.8,0,0,0,1.29,2.73,23.32,23.32,0,0,0,3.37,4.14,23.11,23.11,0,0,0,4.13,3.36,14.19,14.19,0,0,0,2.74,1.3l.77.28.86.32c.16.06.41.14.74.23a9,9,0,0,0,.9.2,7.37,7.37,0,0,0,.82,0,6.09,6.09,0,0,0,2.91-.8A4.11,4.11,0,0,0,39,37.05,5.5,5.5,0,0,0,39.34,36a4.9,4.9,0,0,0,.16-1.1.87.87,0,0,0,0-.33Z"/></g></g></svg>