<svg xmlns="http://www.w3.org/2000/svg" xmlns:xlink="http://www.w3.org/1999/xlink" viewBox="0 0 251.12 75.87"><defs><style>.cls-1{fill:none;}.cls-2{clip-path:url(#clip-path);}.cls-3{fill:#1f5990;}.cls-4{fill:#3199ba;}.cls-5{fill:#f90;}</style><clipPath id="clip-path" transform="translate(-2.81 -3.96)"><rect class="cls-1" width="256" height="83.02"/></clipPath></defs><title>Asset 33</title><g id="Layer_2" data-name="Layer 2"><g id="Layer_1-2" data-name="Layer 1"><g class="cls-2"><g id="LOGO_ERP_INDONESIA" data-name="LOGO ERP INDONESIA"><path class="cls-3" d="M53,64.8v2.74H21.25a18.44,18.44,0,0,1-13-31.48l.32-.31a18.56,18.56,0,0,1-3.77-5.09,18.47,18.47,0,0,1,0-16.52A18.45,18.45,0,0,1,21.25,4H37.07a7.44,7.44,0,0,1,7.44,7.44v2.74H21.25a8.26,8.26,0,1,0,0,16.52H50.94v2.75a7.43,7.43,0,0,1-7.43,7.43H21.25a8.26,8.26,0,1,0,0,16.52H45.6A7.45,7.45,0,0,1,53,64.8Z" transform="translate(-2.81 -3.96)"/><path class="cls-4" d="M84.58,57.36l4.51,7.82-2.38,1.37a7.46,7.46,0,0,1-10.16-2.72l-3.73-6.47L63.28,40.84H53V38.1a7.42,7.42,0,0,1,7.43-7.44H72.38a8.26,8.26,0,0,0,0-16.52H54.88A7.44,7.44,0,0,1,47.45,6.7V4H72.38a18.44,18.44,0,0,1,2.56,36.71l.1.17Z" transform="translate(-2.81 -3.96)"/><path class="cls-5" d="M131.9,22.4a18.44,18.44,0,0,1-18.44,18.44H92.09V38.1A7.45,7.45,0,0,1,97.17,31a7.63,7.63,0,0,1,2.36-.38h13.93a8.26,8.26,0,0,0,0-16.52H95.69A7.45,7.45,0,0,1,88.25,6.7V4h25.21A18.43,18.43,0,0,1,131.9,22.4Z" transform="translate(-2.81 -3.96)"/><path class="cls-3" d="M91.9,47.25h5.29V66H91.9Z" transform="translate(-2.81 -3.96)"/><path class="cls-3" d="M118.75,47.25V66H114.4l-8.26-10V66H101V47.25h4.36l8.26,10v-10Z" transform="translate(-2.81 -3.96)"/><path class="cls-3" d="M122.49,47.25h8.85a12.3,12.3,0,0,1,5.45,1.15,8.56,8.56,0,0,1,3.69,3.26,10,10,0,0,1,0,9.89,8.69,8.69,0,0,1-3.69,3.26A12.44,12.44,0,0,1,131.34,66h-8.85Zm8.64,14.48A5.42,5.42,0,0,0,135,60.37a5.63,5.63,0,0,0,0-7.54,5.46,5.46,0,0,0-3.86-1.36h-3.34V61.73Z" transform="translate(-2.81 -3.96)"/><path class="cls-3" d="M148.67,65.07A9.71,9.71,0,0,1,145,51.61a9.43,9.43,0,0,1,3.71-3.48,12,12,0,0,1,10.66,0,9.71,9.71,0,0,1,3.72,13.47,9.36,9.36,0,0,1-3.72,3.47,11.9,11.9,0,0,1-10.66,0Zm7.9-3.79a4.82,4.82,0,0,0,1.81-1.88,6.16,6.16,0,0,0,0-5.59,4.75,4.75,0,0,0-1.81-1.88,5.24,5.24,0,0,0-5.13,0,4.71,4.71,0,0,0-1.82,1.88,6.16,6.16,0,0,0,0,5.59,4.77,4.77,0,0,0,1.82,1.88,5.24,5.24,0,0,0,5.13,0Z" transform="translate(-2.81 -3.96)"/><path class="cls-3" d="M185,47.25V66h-4.36l-8.26-10V66h-5.18V47.25h4.35l8.26,10v-10Z" transform="translate(-2.81 -3.96)"/><path class="cls-3" d="M203.74,61.87V66h-15V47.25h14.67v4.09H194v3.15h8.32v4H194v3.42Z" transform="translate(-2.81 -3.96)"/><path class="cls-3" d="M208.84,65.77a10.54,10.54,0,0,1-3.47-1.5l1.73-3.9A11.38,11.38,0,0,0,210,61.71a11,11,0,0,0,3.26.51c2,0,3-.51,3-1.53a1.27,1.27,0,0,0-.87-1.19,15.28,15.28,0,0,0-2.79-.81,27.5,27.5,0,0,1-3.53-1A6,6,0,0,1,206.7,56a4.49,4.49,0,0,1-1-3.1,5.35,5.35,0,0,1,.93-3.08,6.29,6.29,0,0,1,2.79-2.18,11.42,11.42,0,0,1,4.56-.8,15.94,15.94,0,0,1,3.64.41,11.12,11.12,0,0,1,3.15,1.22l-1.63,3.92A10.91,10.91,0,0,0,213.94,51a4.33,4.33,0,0,0-2.29.47,1.41,1.41,0,0,0-.73,1.21,1.22,1.22,0,0,0,.86,1.13,15.83,15.83,0,0,0,2.75.77,26,26,0,0,1,3.54,1,6.12,6.12,0,0,1,2.44,1.65,4.46,4.46,0,0,1,1,3.09,5.3,5.3,0,0,1-.93,3.05,6.45,6.45,0,0,1-2.81,2.18,11.38,11.38,0,0,1-4.54.81A17.48,17.48,0,0,1,208.84,65.77Z" transform="translate(-2.81 -3.96)"/><path class="cls-3" d="M224,47.25h5.29V66H224Z" transform="translate(-2.81 -3.96)"/><path class="cls-3" d="M245.56,62.32h-7.91L236.18,66h-5.4L239,47.25h5.21L252.53,66H247ZM244,58.42l-2.41-6-2.4,6Z" transform="translate(-2.81 -3.96)"/><path class="cls-3" d="M117.75,72.44l-.38,1.94h4.15L121.21,76H117l-.41,2.07h4.88l-.34,1.67h-6.93l1.79-9h6.76l-.35,1.66Z" transform="translate(-2.81 -3.96)"/><path class="cls-3" d="M131,75.7A3.55,3.55,0,0,1,129.13,77l1.56,2.77H128.5l-1.4-2.51h-1.77l-.5,2.51h-2.08l1.79-9h3.64a4.07,4.07,0,0,1,2.59.73,2.45,2.45,0,0,1,.92,2A3.47,3.47,0,0,1,131,75.7Zm-2-.6a1.68,1.68,0,0,0,.57-1.36,1.12,1.12,0,0,0-.43-.95,2,2,0,0,0-1.24-.32h-1.64l-.63,3.1h1.77A2.46,2.46,0,0,0,129,75.1Z" transform="translate(-2.81 -3.96)"/><path class="cls-3" d="M140.08,71.51a2.49,2.49,0,0,1,.91,2,3.65,3.65,0,0,1-.53,2A3.47,3.47,0,0,1,139,76.81a5.47,5.47,0,0,1-2.31.45h-2l-.49,2.47h-2.08l1.79-9h3.62A4.05,4.05,0,0,1,140.08,71.51Zm-1.75,3.59a1.67,1.67,0,0,0,.56-1.36,1.12,1.12,0,0,0-.42-.95,2,2,0,0,0-1.24-.32h-1.62l-.63,3.1h1.75A2.44,2.44,0,0,0,138.33,75.1Z" transform="translate(-2.81 -3.96)"/><path class="cls-3" d="M153.09,72.85l-1.36,6.88h-1.9L150,79a2.84,2.84,0,0,1-1,.64,3.5,3.5,0,0,1-1.21.21,2.57,2.57,0,0,1-1.8-.62,2.22,2.22,0,0,1-.67-1.72,3.84,3.84,0,0,1,.09-.83l.76-3.81h2l-.73,3.68a2.73,2.73,0,0,0,0,.5c0,.71.38,1.07,1.15,1.07a1.79,1.79,0,0,0,1.25-.44,2.37,2.37,0,0,0,.67-1.32l.7-3.49Z" transform="translate(-2.81 -3.96)"/><path class="cls-3" d="M160.71,73.35a2.24,2.24,0,0,1,.68,1.74,3.91,3.91,0,0,1-.09.83l-.77,3.81h-2l.74-3.69a2.26,2.26,0,0,0,.05-.47,1.11,1.11,0,0,0-.29-.82,1.27,1.27,0,0,0-.88-.28,1.89,1.89,0,0,0-1.28.44,2.38,2.38,0,0,0-.68,1.33l-.69,3.49h-2l1.36-6.88h1.89l-.15.74a3.23,3.23,0,0,1,2.26-.84A2.65,2.65,0,0,1,160.71,73.35Z" transform="translate(-2.81 -3.96)"/><path class="cls-3" d="M165,77.3a1.91,1.91,0,0,0,0,.28c0,.44.24.66.73.66a1.57,1.57,0,0,0,.8-.24l.3,1.42a3.29,3.29,0,0,1-1.72.41,2.29,2.29,0,0,1-1.56-.51,1.77,1.77,0,0,1-.58-1.41,3.57,3.57,0,0,1,.06-.6l.55-2.77h-1.06l.3-1.54h1.07l.33-1.67h2L165.85,73h1.71l-.3,1.54h-1.72Z" transform="translate(-2.81 -3.96)"/><path class="cls-3" d="M176.07,72.85l-1.36,6.88h-1.89L173,79a2.84,2.84,0,0,1-1,.64,3.46,3.46,0,0,1-1.21.21,2.57,2.57,0,0,1-1.8-.62,2.22,2.22,0,0,1-.67-1.72,3.84,3.84,0,0,1,.09-.83l.76-3.81h2l-.73,3.68a2.73,2.73,0,0,0-.05.5c0,.71.38,1.07,1.15,1.07a1.79,1.79,0,0,0,1.25-.44,2.37,2.37,0,0,0,.67-1.32l.7-3.49Z" transform="translate(-2.81 -3.96)"/><path class="cls-3" d="M181.62,75.84,184,79.73h-2.32L180,77.05l-1.22,1-.33,1.67h-2l1.89-9.49h2l-1.06,5.31,3.3-2.7h2.59Z" transform="translate(-2.81 -3.96)"/><path class="cls-3" d="M190.15,70.78h2.08l-1.79,9h-2.08Z" transform="translate(-2.81 -3.96)"/><path class="cls-3" d="M199.55,73.35a2.24,2.24,0,0,1,.68,1.74,3.91,3.91,0,0,1-.09.83l-.77,3.81h-2l.74-3.69a1.74,1.74,0,0,0,0-.47,1.11,1.11,0,0,0-.29-.82,1.27,1.27,0,0,0-.88-.28,1.91,1.91,0,0,0-1.28.44,2.38,2.38,0,0,0-.68,1.33l-.69,3.49h-2l1.36-6.88h1.9l-.16.74a3.25,3.25,0,0,1,2.27-.84A2.65,2.65,0,0,1,199.55,73.35Z" transform="translate(-2.81 -3.96)"/><path class="cls-3" d="M210.08,70.24l-1.89,9.49H206.3l.14-.69a3.05,3.05,0,0,1-2.11.79,3.12,3.12,0,0,1-1.48-.37,2.84,2.84,0,0,1-1.08-1.07,3.19,3.19,0,0,1-.4-1.64,4.23,4.23,0,0,1,.5-2,3.82,3.82,0,0,1,1.38-1.44,3.69,3.69,0,0,1,1.91-.51,3.22,3.22,0,0,1,1.33.25,2,2,0,0,1,.9.76l.7-3.52ZM206,77.89a1.93,1.93,0,0,0,.72-.8,2.58,2.58,0,0,0,.26-1.17,1.51,1.51,0,0,0-.42-1.12,1.59,1.59,0,0,0-1.16-.4,1.91,1.91,0,0,0-1,.28,2,2,0,0,0-.72.8,2.6,2.6,0,0,0-.26,1.18,1.47,1.47,0,0,0,.42,1.11,1.59,1.59,0,0,0,1.16.41A1.91,1.91,0,0,0,206,77.89Z" transform="translate(-2.81 -3.96)"/><path class="cls-3" d="M211.75,79.44a2.77,2.77,0,0,1-1.21-1.08,3,3,0,0,1-.43-1.61,4,4,0,0,1,.54-2,3.84,3.84,0,0,1,1.48-1.43,4.31,4.31,0,0,1,2.13-.52,4,4,0,0,1,1.83.38,3,3,0,0,1,1.21,1.08,3.06,3.06,0,0,1,.43,1.62,4,4,0,0,1-.53,2,3.8,3.8,0,0,1-1.49,1.43,4.33,4.33,0,0,1-2.14.53A4.06,4.06,0,0,1,211.75,79.44Zm3-1.55a2,2,0,0,0,.71-.8,2.58,2.58,0,0,0,.26-1.17,1.54,1.54,0,0,0-.41-1.12,1.56,1.56,0,0,0-1.15-.4,2,2,0,0,0-1.05.28,2.06,2.06,0,0,0-.72.8,2.59,2.59,0,0,0-.25,1.18,1.5,1.5,0,0,0,.41,1.11,1.61,1.61,0,0,0,1.16.41A2,2,0,0,0,214.74,77.89Z" transform="translate(-2.81 -3.96)"/><path class="cls-3" d="M225.47,73.35a2.24,2.24,0,0,1,.68,1.74,3.91,3.91,0,0,1-.09.83l-.77,3.81h-2L224,76a1.74,1.74,0,0,0,.05-.47,1.11,1.11,0,0,0-.29-.82,1.27,1.27,0,0,0-.88-.28,1.91,1.91,0,0,0-1.28.44,2.38,2.38,0,0,0-.68,1.33l-.69,3.49h-2l1.36-6.88h1.9l-.16.74a3.25,3.25,0,0,1,2.26-.84A2.65,2.65,0,0,1,225.47,73.35Z" transform="translate(-2.81 -3.96)"/><path class="cls-3" d="M234.47,76.82H229.2c.07.94.67,1.41,1.78,1.41a3,3,0,0,0,1-.17,2.47,2.47,0,0,0,.84-.47l.83,1.32a4.2,4.2,0,0,1-1.31.69,5.4,5.4,0,0,1-1.56.23,4.32,4.32,0,0,1-1.86-.38,2.77,2.77,0,0,1-1.23-1.08,3,3,0,0,1-.43-1.62,4,4,0,0,1,.52-2,3.69,3.69,0,0,1,1.44-1.44,4.23,4.23,0,0,1,2.09-.51,3.78,3.78,0,0,1,1.74.37,2.63,2.63,0,0,1,1.13,1.06,3.1,3.1,0,0,1,.41,1.6A5.11,5.11,0,0,1,234.47,76.82ZM230,74.62a2,2,0,0,0-.69,1h3.41a1.33,1.33,0,0,0-.42-1,1.6,1.6,0,0,0-1.12-.38A1.87,1.87,0,0,0,230,74.62Z" transform="translate(-2.81 -3.96)"/><path class="cls-3" d="M235.9,79.63a3.48,3.48,0,0,1-1.25-.52l.77-1.44a3.93,3.93,0,0,0,1.09.47,4.8,4.8,0,0,0,1.3.18,2.39,2.39,0,0,0,1-.17.55.55,0,0,0,.33-.5.39.39,0,0,0-.3-.37,7.59,7.59,0,0,0-.94-.24,7.14,7.14,0,0,1-1.22-.31,2,2,0,0,1-.83-.54,1.42,1.42,0,0,1-.35-1,2,2,0,0,1,1-1.77,4.37,4.37,0,0,1,2.5-.64,6.43,6.43,0,0,1,1.39.15,4.18,4.18,0,0,1,1.15.42l-.72,1.46a3.76,3.76,0,0,0-2-.52,2,2,0,0,0-1,.19.56.56,0,0,0-.34.48.41.41,0,0,0,.3.39,5.55,5.55,0,0,0,1,.26,11.56,11.56,0,0,1,1.2.3,2,2,0,0,1,.81.54,1.39,1.39,0,0,1,.34,1,2,2,0,0,1-1,1.78,4.52,4.52,0,0,1-2.5.63A7.05,7.05,0,0,1,235.9,79.63Z" transform="translate(-2.81 -3.96)"/><path class="cls-3" d="M243.17,72.85h2l-1.37,6.88h-2Zm.5-1.26a1,1,0,0,1-.33-.73,1.07,1.07,0,0,1,.37-.85,1.32,1.32,0,0,1,.95-.34,1.25,1.25,0,0,1,.85.28.94.94,0,0,1,.32.71,1.13,1.13,0,0,1-.37.89,1.33,1.33,0,0,1-1,.34A1.16,1.16,0,0,1,243.67,71.59Z" transform="translate(-2.81 -3.96)"/><path class="cls-3" d="M253.92,72.85l-1.36,6.88h-1.9l.13-.68a3,3,0,0,1-2.11.78,3.12,3.12,0,0,1-1.48-.37,2.84,2.84,0,0,1-1.08-1.07,3.19,3.19,0,0,1-.4-1.64,4.23,4.23,0,0,1,.5-2,3.82,3.82,0,0,1,1.38-1.44,3.72,3.72,0,0,1,1.91-.51,2.43,2.43,0,0,1,2.24,1l.18-.93Zm-3.58,5a1.93,1.93,0,0,0,.72-.8,2.58,2.58,0,0,0,.26-1.17,1.51,1.51,0,0,0-.42-1.12,1.59,1.59,0,0,0-1.16-.4,1.91,1.91,0,0,0-1,.28,2,2,0,0,0-.72.8,2.6,2.6,0,0,0-.26,1.18,1.47,1.47,0,0,0,.42,1.11,1.59,1.59,0,0,0,1.16.41A1.91,1.91,0,0,0,250.34,77.89Z" transform="translate(-2.81 -3.96)"/><rect class="cls-3" x="7.12" y="71.41" width="103.53" height="1.05"/></g></g></g></g></svg>