<svg xmlns="http://www.w3.org/2000/svg" viewBox="0 0 187.43 45.52"><defs><style>.cls-1{fill:#f5f6f6;}.cls-1,.cls-2,.cls-3,.cls-4{fill-rule:evenodd;}.cls-2{fill:#eea342;}.cls-3{fill:#eeb863;}.cls-4{fill:#fefefe;}</style></defs><title>Asset 27</title><g id="Layer_2" data-name="Layer 2"><g id="Layer_1-2" data-name="Layer 1"><polygon class="cls-1" points="187.43 9.75 174.06 40.88 168.05 40.88 172.19 31.32 163.4 9.75 169.73 9.75 173.09 19.25 175.16 25.45 177.42 19.38 181.42 9.75 187.43 9.75"/><polygon class="cls-2" points="167.15 19.05 167.73 20.34 171.99 31 167.73 41.59 167.15 42.89 166.63 44.31 172.9 44.31 177.22 33.52 178.26 31.07 178.26 31 178.26 30.87 177.22 28.42 169.73 9.75 163.4 9.75 167.15 19.05"/><path class="cls-1" d="M24.41,8.53a12,12,0,0,0-7.94-3.1c-6.65,0-10.72,5-10.72,11.43,0,5.16,3,10.46,10.72,10.46a10.52,10.52,0,0,0,7-2.52V19.31H15.57V14h13.3V27.13a15.33,15.33,0,0,1-12.4,5.62C4.78,32.75,0,25.06,0,16.86,0,8.14,5.49,0,16.47,0A16.3,16.3,0,0,1,28,4.78Z"/><path class="cls-1" d="M58.13,3.94v6.2h6v4.72H58.06v9.42c0,2.14,1.17,3.17,2.85,3.17a6.72,6.72,0,0,0,2.64-.71L65,31.39a10.88,10.88,0,0,1-4.46.9c-4.78.2-7.88-2.52-7.88-8V14.86H48.57V10.14H52.7V4.52Z"/><path class="cls-1" d="M80.67,16A7.27,7.27,0,0,0,75.24,14c-2.58,0-4,.77-4,2.13s1.29,2.26,4.13,2.39c4.14.32,9.37,1.22,9.37,7,0,3.87-3.17,7.23-9.43,7.23-3.49,0-7-.58-10.14-3.94L67.82,25c1.55,1.75,5.1,3,7.55,3.11,2.07.06,4-1,4-2.65s-1.3-2.13-4.4-2.33c-4.13-.26-9.1-1.81-9.1-6.78s5.29-6.85,9.3-6.85c3.42,0,6,.65,8.52,2.91Z"/><path class="cls-1" d="M98.17,32V20.28c0-2.84-1.48-5.49-4.52-5.49S89,17.44,89,20.28V32H83.57v-22h5L89,12.72c1.16-2.19,3.68-3,5.81-3a6.57,6.57,0,0,1,6.46,4.13,8,8,0,0,1,7.36-4c6.2,0,9.3,3.81,9.3,10.4V32h-5.42V20.22c0-2.91-1.23-5.36-4.13-5.36s-4.78,2.58-4.78,5.42V32Z"/><path class="cls-1" d="M122.13,21.05c0,4.2,2.84,6.66,6.46,6.66,8.59,0,8.59-13.31,0-13.31a6.22,6.22,0,0,0-6.46,6.65Zm13.18-10.91h5.17V32h-5.11l-.26-3.16c-1.22,2.58-4.65,3.81-7.1,3.88-6.52,0-11.3-4-11.3-11.7s5-11.49,11.43-11.49c2.91,0,5.75,1.42,7,3.55Z"/><path class="cls-1" d="M158.43,32V20.54c0-3.3-1.81-5.81-5.3-5.81-3.29,0-5.61,2.77-5.61,6.13V32h-5.37v-22H147l.39,3a9.76,9.76,0,0,1,7.17-3.3c5.16,0,9.3,3.88,9.3,10.79V32Z"/><polygon class="cls-3" points="178.26 30.81 177.22 28.42 169.73 9.75 163.4 9.75 178.26 31 178.26 30.81"/><path class="cls-1" d="M33.84,18.54c.84-2.85,3.23-4.27,6.14-4.27,3.16,0,5.36,1.42,5.75,4.27Zm6-9.11H30l3.23,1.74a11,11,0,0,0-5.1,9.76c0,7,4.52,11.69,12.08,11.69a13.51,13.51,0,0,0,9.43-3.56l-3.49-3.42C45,26.93,42.3,27.71,40.3,27.71c-3.81,0-6.2-2-6.52-4.72H50.89C51.73,14,47.15,9.43,39.85,9.43Z"/><path class="cls-4" d="M3.45,43.64H4.62L6,37.27H4.71L3.45,43.64Zm6.46-4.93h0a2.41,2.41,0,0,0-1.71.62l.09-.53H7.22l-1,4.84H7.4l.54-2.51a1.5,1.5,0,0,1,1.61-1.44.87.87,0,0,1,1,.9.54.54,0,0,1-.09.36l-.53,2.69h1.16L11.61,41c0-.18.09-.36.09-.63a1.6,1.6,0,0,0-1.79-1.61Zm4.3,5h0c1.34,0,2.33-.63,2.33-1.62,0-1.7-2.69-1.07-2.69-1.88,0-.36.36-.63,1.17-.63a3,3,0,0,1,1.43.45l.36-.89a3.19,3.19,0,0,0-1.7-.45c-1.44,0-2.33.62-2.33,1.7,0,1.61,2.59,1,2.59,1.79,0,.36-.35.63-1.07.63a3.42,3.42,0,0,1-1.7-.54l-.45.9a3.78,3.78,0,0,0,2.06.54Zm6.54-5h0a2.13,2.13,0,0,0-1.52.53l.09-.44H18.24L16.9,45.43h1.16l.45-2.51a1.87,1.87,0,0,0,1.7.81,2.69,2.69,0,0,0,2.69-2.87,2,2,0,0,0-2.15-2.15Zm-.63,4h0c-.89,0-1.34-.45-1.34-1.25a1.68,1.68,0,0,1,1.7-1.8A1.14,1.14,0,0,1,21.74,41a1.66,1.66,0,0,1-1.62,1.79ZM25.32,38h0a.74.74,0,0,0,.72-.81.67.67,0,0,0-.63-.62.79.79,0,0,0-.8.8.63.63,0,0,0,.71.63Zm-1.79,5.65h1.08l1-4.84H24.43l-.9,4.84Zm4.57-4.22h0l.09-.62H27.11l-1,4.84h1.16l.45-2.42a1.65,1.65,0,0,1,1.71-1.44h.26L30,38.71a2.28,2.28,0,0,0-1.88.71ZM31.78,38h0a.73.73,0,0,0,.71-.81.67.67,0,0,0-.62-.62.75.75,0,0,0-.81.8.64.64,0,0,0,.72.63Zm-1.89,5.65,1-4.84H32l-1,4.84Zm6.28-4.93h0a2.2,2.2,0,0,0-1.62.62l.09-.53H33.57l-1,4.84h1.17l.45-2.51c.26-1,.8-1.44,1.61-1.44s1,.36,1,.9V41l-.53,2.69h1.16L38,41v-.63a1.6,1.6,0,0,0-1.79-1.61Zm7.44.09h0l-.18.8a1.77,1.77,0,0,0-1.71-.89A2.65,2.65,0,0,0,39,41.4a2,2,0,0,0,2.15,2.06,2.23,2.23,0,0,0,1.61-.63v.27a1.63,1.63,0,0,1-1.79,1.43,3.55,3.55,0,0,1-1.8-.54l-.53.81a3.49,3.49,0,0,0,2.24.72,2.8,2.8,0,0,0,3-2.6l.81-4.12Zm-2.24,3.67h0c-.81,0-1.26-.45-1.26-1.07a1.65,1.65,0,0,1,1.7-1.71c.81,0,1.26.45,1.26,1.08a1.65,1.65,0,0,1-1.7,1.7Zm12.27-4.21h0l.18-1H49.16l-1.34,6.37h4.84l.18-1H49.25l.36-1.79h3l.18-.9H49.79l.36-1.7Zm3.86.45h0a2.41,2.41,0,0,0-1.71.62l.09-.53H54.81l-.9,4.84H55l.54-2.51a1.55,1.55,0,0,1,1.61-1.44.88.88,0,0,1,1,.9A.54.54,0,0,1,58,41l-.54,2.69h1.16L59.2,41a1.33,1.33,0,0,0,.09-.63,1.6,1.6,0,0,0-1.79-1.61Zm4.66,1H63.5l.18-.89H62.34l.27-1.08H61.44l-.18,1.08h-.81l-.17.89h.8L60.63,42a.68.68,0,0,0-.09.36A1.26,1.26,0,0,0,62,43.73a2.69,2.69,0,0,0,1.16-.27l-.18-.9a.82.82,0,0,1-.62.18c-.45,0-.63-.18-.63-.54V42l.45-2.33Zm3.76-.27h0l.18-.62H64.94L64,43.64h1.08l.53-2.42a1.59,1.59,0,0,1,1.71-1.44h.27l.17-1.07a2.28,2.28,0,0,0-1.88.71Zm6.9,1.44v.71H68.88a1.27,1.27,0,0,0,1.43,1.17,2.49,2.49,0,0,0,1.44-.45l.45.72a3.15,3.15,0,0,1-2,.72,2.16,2.16,0,0,1-2.42-2.16,2.76,2.76,0,0,1,2.78-2.86,2,2,0,0,1,2.24,2.15ZM70.58,39.6A1.64,1.64,0,0,0,69,40.77h2.87a1.16,1.16,0,0,0-1.26-1.17ZM77,38.71h0a2.56,2.56,0,0,0-1.62.53l.09-.44H74.35l-1.26,6.63h1.08l.54-2.51a1.69,1.69,0,0,0,1.61.81,2.71,2.71,0,0,0,2.78-2.87A2.07,2.07,0,0,0,77,38.71Zm-.72,4h0A1.14,1.14,0,0,1,75,41.49a1.68,1.68,0,0,1,1.71-1.8A1.14,1.14,0,0,1,77.93,41a1.67,1.67,0,0,1-1.7,1.79Zm5.38-3.32h0l.09-.62H80.62l-1,4.84H80.8l.54-2.42A1.5,1.5,0,0,1,83,39.78h.36l.18-1.07a2.26,2.26,0,0,0-1.88.71Zm6.9,1.44a1.9,1.9,0,0,1-.09.71H84.56c0,.72.45,1.17,1.44,1.17a2.46,2.46,0,0,0,1.43-.45l.45.72a3.14,3.14,0,0,1-2,.72,2.15,2.15,0,0,1-2.42-2.16,2.75,2.75,0,0,1,2.78-2.86,2,2,0,0,1,2.24,2.15ZM86.27,39.6a1.65,1.65,0,0,0-1.62,1.17h2.78a1,1,0,0,0-1.16-1.17Zm6.45-.89h0a2.39,2.39,0,0,0-1.7.62l.09-.53H90l-1,4.84h1.17l.54-2.51a1.51,1.51,0,0,1,1.61-1.44.88.88,0,0,1,1,.9c0,.09-.09.27-.09.36l-.54,2.69h1.16L94.42,41c0-.18.09-.36.09-.63a1.6,1.6,0,0,0-1.79-1.61Zm7.8,2.15h0a2,2,0,0,0-2.24-2.15,2.77,2.77,0,0,0-2.87,2.86,2.2,2.2,0,0,0,2.42,2.16,2.94,2.94,0,0,0,2-.72l-.45-.72a2.26,2.26,0,0,1-1.43.45c-.9,0-1.35-.45-1.35-1.17h3.86c0-.26.09-.44.09-.71ZM98.19,39.6h0a1.16,1.16,0,0,1,1.25,1.17H96.66a1.47,1.47,0,0,1,1.53-1.17Zm7.44-.8h0l-.54,2.51a1.56,1.56,0,0,1-1.62,1.43.8.8,0,0,1-.89-.9v-.35l.54-2.69H102l-.54,2.69c0,.17-.09.35-.09.53a1.63,1.63,0,0,0,1.8,1.71,2.37,2.37,0,0,0,1.7-.63l-.18.54h1.16l.9-4.84Zm3.58.62h0l.09-.62h-1.08l-1,4.84h1.16l.45-2.42a1.64,1.64,0,0,1,1.7-1.44h.27l.27-1.07a2.28,2.28,0,0,0-1.88.71ZM112.88,38h0a.74.74,0,0,0,.72-.81.67.67,0,0,0-.63-.62.75.75,0,0,0-.8.8.64.64,0,0,0,.71.63Zm-1.79,5.65.9-4.84h1.16l-1,4.84Zm7.17-4.84h0l-.09.71a1.87,1.87,0,0,0-1.7-.8,2.69,2.69,0,0,0-2.69,2.86,2,2,0,0,0,2.06,2.16,2.2,2.2,0,0,0,1.62-.54l-.09.45h1.07l1-4.84Zm-2.06,3.94h0a1.2,1.2,0,0,1-1.34-1.25,1.67,1.67,0,0,1,1.7-1.8A1.13,1.13,0,0,1,117.81,41a1.6,1.6,0,0,1-1.61,1.79Zm3.76.9h1.17l1.34-6.73h-1.16L120,43.64Zm14.7-6.37h0l-2.6,4.93-.62-4.93h-1.08l-2.69,4.84-.62-4.84h-1.17l.81,6.37H128L130.54,39l.63,4.66h1.34l3.32-6.37Zm2.6.72h0a.81.81,0,0,0,.81-.81.69.69,0,0,0-.72-.62.72.72,0,0,0-.71.8.61.61,0,0,0,.62.63Zm-1.79,5.65,1-4.84h1.16l-1,4.84Zm4.3.09h0c1.35,0,2.33-.63,2.33-1.62,0-1.7-2.6-1.07-2.6-1.88,0-.36.36-.63,1.08-.63a3,3,0,0,1,1.43.45l.45-.89a3.51,3.51,0,0,0-1.79-.45c-1.35,0-2.33.62-2.33,1.7,0,1.61,2.69,1,2.69,1.79,0,.36-.36.63-1.08.63a2.93,2.93,0,0,1-1.7-.54l-.54.9a4.35,4.35,0,0,0,2.06.54Zm8.07-6.82h0l-.54,2.6a1.88,1.88,0,0,0-1.7-.8,2.68,2.68,0,0,0-2.69,2.86,2,2,0,0,0,2.15,2.16,2.09,2.09,0,0,0,1.52-.54l-.09.45h1.08l1.34-6.73Zm-2.51,5.83h0a1.14,1.14,0,0,1-1.26-1.25,1.61,1.61,0,0,1,1.62-1.8A1.2,1.2,0,0,1,147,41a1.67,1.67,0,0,1-1.7,1.79Zm6.18,1h0a2.85,2.85,0,0,0,3-2.87,2.2,2.2,0,0,0-2.42-2.15,2.78,2.78,0,0,0-2.87,2.86,2.13,2.13,0,0,0,2.33,2.16Zm.09-1h0a1.13,1.13,0,0,1-1.25-1.25,1.65,1.65,0,0,1,1.61-1.8A1.21,1.21,0,0,1,153.31,41a1.68,1.68,0,0,1-1.71,1.79Zm10.4-4h0a2.33,2.33,0,0,0-1.88.8,1.68,1.68,0,0,0-1.53-.8,2.19,2.19,0,0,0-1.61.62l.09-.53H156l-1,4.84h1.16l.45-2.51c.27-1,.72-1.44,1.53-1.44a.87.87,0,0,1,1,.9c0,.09-.09.27-.09.36l-.54,2.69h1.17l.54-2.51c.18-1,.71-1.44,1.43-1.44a.88.88,0,0,1,1,.9.54.54,0,0,1-.09.36L162,43.64h1.16L163.7,41a1.53,1.53,0,0,0,.09-.63C163.79,39.24,163.07,38.71,162,38.71Z"/></g></g></svg>