<svg xmlns="http://www.w3.org/2000/svg" xmlns:xlink="http://www.w3.org/1999/xlink" viewBox="0 0 55 55"><defs><style>.cls-1{fill:url(#GradientFill_1);}.cls-2{fill:#fff;}</style><linearGradient id="GradientFill_1" y1="27.5" x2="55" y2="27.5" gradientUnits="userSpaceOnUse"><stop offset="0" stop-color="#9d258a"/><stop offset="0.07" stop-color="#85277c"/><stop offset="0.51" stop-color="#380548"/><stop offset="0.77" stop-color="#380548"/><stop offset="1" stop-color="#380548"/></linearGradient></defs><title>Asset 25</title><g id="Layer_2" data-name="Layer 2"><g id="Layer_3" data-name="Layer 3"><rect class="cls-1" width="55" height="55" rx="27.5" ry="27.5"/><path class="cls-2" d="M41.48,16.69a2.55,2.55,0,0,0-1.87-.78H15.39a2.65,2.65,0,0,0-2.64,2.64v17.9a2.65,2.65,0,0,0,2.64,2.64H39.61a2.65,2.65,0,0,0,2.64-2.64V18.55a2.54,2.54,0,0,0-.77-1.86ZM40.14,36.45a.55.55,0,0,1-.53.53H15.39a.51.51,0,0,1-.38-.16.5.5,0,0,1-.15-.37V23.81A9.67,9.67,0,0,0,16,24.9q4.41,3.39,7,5.56c.56.47,1,.84,1.36,1.11a7.31,7.31,0,0,0,1.43.79,4.09,4.09,0,0,0,1.68.41h0a4.09,4.09,0,0,0,1.68-.41,7.31,7.31,0,0,0,1.43-.79c.35-.27.8-.64,1.36-1.11,1.74-1.45,4.07-3.3,7-5.56a9.67,9.67,0,0,0,1.13-1.09Zm0-17.48v.18a4.12,4.12,0,0,1-.76,2.17,7.86,7.86,0,0,1-1.66,1.9l-6.6,5.22-.58.48c-.31.27-.57.48-.75.62s-.43.32-.73.52a4.68,4.68,0,0,1-.84.45,1.88,1.88,0,0,1-.7.15h0a1.88,1.88,0,0,1-.7-.15,4.68,4.68,0,0,1-.84-.45c-.3-.2-.54-.38-.73-.52s-.44-.35-.75-.62l-.58-.48-6.6-5.22a5.74,5.74,0,0,1-2.42-4.67.51.51,0,0,1,.53-.53H39.61a.31.31,0,0,0,.24,0c.06,0,.11,0,.14.12s.07.16.09.15.05.06.05.21,0,.21,0,.21Z"/></g></g></svg>