<svg xmlns="http://www.w3.org/2000/svg" xmlns:xlink="http://www.w3.org/1999/xlink" viewBox="0 0 50 50"><defs><style>.cls-1{fill:#008cff;}.cls-2{fill:none;}.cls-3{clip-path:url(#clip-path);}.cls-4{clip-path:url(#clip-path-2);}.cls-5{fill:#fff;}</style><clipPath id="clip-path"><rect class="cls-1" width="50" height="50" rx="25" ry="25"/></clipPath><clipPath id="clip-path-2"><rect class="cls-2" x="15.34" y="14.66" width="19.33" height="20.68"/></clipPath></defs><title>Asset 13</title><g id="Layer_2" data-name="Layer 2"><g id="Layer_3" data-name="Layer 3"><rect class="cls-1" width="50" height="50" rx="25" ry="25"/><g class="cls-3"><g class="cls-4"><path class="cls-5" d="M30.61,22.05a2.72,2.72,0,0,0-1.95.78l-6.91-4a1.61,1.61,0,0,0,.1-.68,2.92,2.92,0,1,0-2.92,2.92,2.76,2.76,0,0,0,1.95-.78l6.91,4a1.59,1.59,0,0,0-.1.68,1.63,1.63,0,0,0,.1.68l-6.91,4.09A2.72,2.72,0,0,0,18.93,29a2.82,2.82,0,1,0,2.82,2.82,2,2,0,0,0-.09-.68L28.57,27a2.68,2.68,0,0,0,1.94.78,2.86,2.86,0,0,0,2.92-2.92,2.71,2.71,0,0,0-2.82-2.82Z"/></g></g></g></g></svg>