<svg xmlns="http://www.w3.org/2000/svg" xmlns:xlink="http://www.w3.org/1999/xlink" viewBox="0 0 55 55"><defs><style>.cls-1{fill:none;}.cls-2{fill:url(#GradientFill_1);}.cls-3{clip-path:url(#clip-path);}.cls-4{fill:#fff;}</style><linearGradient id="GradientFill_1" y1="27.5" x2="55" y2="27.5" gradientUnits="userSpaceOnUse"><stop offset="0" stop-color="#9d258a"/><stop offset="0.07" stop-color="#85277c"/><stop offset="0.51" stop-color="#380548"/><stop offset="0.77" stop-color="#380548"/><stop offset="1" stop-color="#380548"/></linearGradient><clipPath id="clip-path"><rect class="cls-1" x="12.67" y="12.5" width="29.66" height="30"/></clipPath></defs><title>Asset 30</title><g id="Layer_2" data-name="Layer 2"><g id="Layer_3" data-name="Layer 3"><circle class="cls-2" cx="27.5" cy="27.5" r="27.5"/><g class="cls-3"><path class="cls-4" d="M26.77,12.54A14.84,14.84,0,0,0,14.28,34.08l-1.57,7.64a.58.58,0,0,0,.7.68l7.48-1.77a14.83,14.83,0,1,0,5.88-28.09Zm8.93,23a11.61,11.61,0,0,1-13.37,2.19l-1-.52L16.7,38.31l1-4.69-.51-1a11.63,11.63,0,0,1,2.14-13.48A11.61,11.61,0,0,1,35.7,35.56Z"/></g><path class="cls-4" d="M34.69,30.56l-2.87-.82a1.06,1.06,0,0,0-1.06.28l-.7.71a1,1,0,0,1-1.14.24,15.34,15.34,0,0,1-5-4.36,1,1,0,0,1,.09-1.16l.61-.79a1.07,1.07,0,0,0,.13-1.09l-1.21-2.73a1.07,1.07,0,0,0-1.67-.38,4.87,4.87,0,0,0-1.87,2.85c-.2,2,.66,4.55,3.93,7.59,3.76,3.52,6.78,4,8.75,3.51a4.91,4.91,0,0,0,2.57-2.24,1.08,1.08,0,0,0-.61-1.61Z"/></g></g></svg>