<svg xmlns="http://www.w3.org/2000/svg" xmlns:xlink="http://www.w3.org/1999/xlink" viewBox="0 0 57 57"><defs><style>.cls-1,.cls-2{fill:none;}.cls-2{stroke-miterlimit:10;stroke-width:2px;stroke:url(#GradientFill_1);}.cls-3{clip-path:url(#clip-path);}.cls-4{fill:url(#GradientFill_1-2);}.cls-5{fill:url(#GradientFill_1-3);}</style><linearGradient id="GradientFill_1" y1="28.5" x2="57" y2="28.5" gradientUnits="userSpaceOnUse"><stop offset="0" stop-color="#9d258a"/><stop offset="0.07" stop-color="#85277c"/><stop offset="0.51" stop-color="#380548"/><stop offset="0.77" stop-color="#380548"/><stop offset="1" stop-color="#380548"/></linearGradient><clipPath id="clip-path"><rect class="cls-1" x="13.67" y="13.5" width="29.66" height="30"/></clipPath><linearGradient id="GradientFill_1-2" x1="13.67" y1="28.47" x2="43.32" y2="28.47" xlink:href="#GradientFill_1"/><linearGradient id="GradientFill_1-3" x1="21.03" y1="28.38" x2="36.46" y2="28.38" xlink:href="#GradientFill_1"/></defs><title>Asset 29</title><g id="Layer_2" data-name="Layer 2"><g id="Layer_3" data-name="Layer 3"><circle class="cls-2" cx="28.5" cy="28.5" r="27.5"/><g class="cls-3"><path class="cls-4" d="M27.77,13.54A14.84,14.84,0,0,0,15.28,35.08l-1.57,7.64a.58.58,0,0,0,.7.68l7.48-1.77a14.83,14.83,0,1,0,5.88-28.09Zm8.93,23a11.61,11.61,0,0,1-13.37,2.19l-1-.52L17.7,39.31l1-4.69-.51-1a11.63,11.63,0,0,1,2.14-13.48A11.61,11.61,0,0,1,36.7,36.56Z"/></g><path class="cls-5" d="M35.69,31.56l-2.87-.82a1.06,1.06,0,0,0-1.06.28l-.7.71a1,1,0,0,1-1.14.24,15.34,15.34,0,0,1-5-4.36,1,1,0,0,1,.09-1.16l.61-.79a1.07,1.07,0,0,0,.13-1.09l-1.21-2.73a1.07,1.07,0,0,0-1.67-.38,4.87,4.87,0,0,0-1.87,2.85c-.2,2,.66,4.55,3.93,7.59,3.76,3.52,6.78,4,8.75,3.51a4.91,4.91,0,0,0,2.57-2.24,1.08,1.08,0,0,0-.61-1.61Z"/></g></g></svg>